<?xml version="1.0" encoding="UTF-8"?>
<svg width="920px" height="250px" viewBox="0 0 920 250" version="1.1" xmlns="http://www.w3.org/2000/svg" xmlns:xlink="http://www.w3.org/1999/xlink">
    <!-- Generator: Sketch 41.2 (35397) - http://www.bohemiancoding.com/sketch -->
    <title>Artboard</title>
    <desc>Created with Sketch.</desc>
    <defs></defs>
    <g id="Page-1" stroke="none" stroke-width="1" fill="none" fill-rule="evenodd">
        <g id="Artboard" fill="#333333">
            <path d="M0,49.9903746 C0,22.3814531 22.3851987,0 49.9937509,0 L870.006249,0 C897.617035,0 920,22.3782945 920,49.9903746 L920,200.009625 C920,227.618547 897.614801,250 870.006249,250 L49.9937509,250 C22.3829647,250 0,227.621705 0,200.009625 L0,49.9903746 Z M266.480469,98.28125 L279.917969,98.28125 L259.214844,155 L246.167969,155 L225.347656,98.28125 L239.292969,98.28125 L252.964844,138.203125 L266.480469,98.28125 Z M290.085938,98.0273438 C291.453132,96.6601494 293.126292,95.9765625 295.105469,95.9765625 C297.084645,95.9765625 298.770826,96.6666598 300.164062,98.046875 C301.557299,99.4270902 302.253906,101.106761 302.253906,103.085938 C302.253906,105.065114 301.563809,106.744785 300.183594,108.125 C298.803379,109.505215 297.123708,110.195312 295.144531,110.195312 C293.165355,110.195312 291.485684,109.505215 290.105469,108.125 C288.725254,106.744785 288.035156,105.058604 288.035156,103.066406 C288.035156,101.074209 288.718743,99.3945381 290.085938,98.0273438 Z M289.050781,155 L289.050781,115.234375 L301.238281,115.234375 L301.238281,155 L289.050781,155 Z M350.996094,143.554688 C350.006505,147.226581 347.916683,150.253894 344.726562,152.636719 C341.536442,155.019543 337.311224,156.210938 332.050781,156.210938 C326.790338,156.210938 322.122416,154.290384 318.046875,150.449219 C313.971334,146.608054 311.933594,141.510448 311.933594,135.15625 C311.933594,128.802052 313.912741,123.691426 317.871094,119.824219 C321.829447,115.957012 326.686169,114.023438 332.441406,114.023438 C338.196643,114.023438 342.845034,115.813784 346.386719,119.394531 C349.928403,122.975278 351.699219,127.994759 351.699219,134.453125 C351.699219,136.640636 351.621095,137.890623 351.464844,138.203125 L323.808594,138.203125 C323.912761,140.390636 324.837231,142.220045 326.582031,143.691406 C328.326832,145.162768 330.410144,145.898438 332.832031,145.898438 C336.842468,145.898438 339.511712,144.153663 340.839844,140.664062 L350.996094,143.554688 Z M397.277344,115.234375 L405.011719,138.828125 L411.652344,115.234375 L423.566406,115.234375 L411.261719,155 L399.191406,155 L390.519531,129.335938 L382.042969,155 L369.738281,155 L357.277344,115.234375 L369.894531,115.234375 L376.535156,138.75 L384.386719,115.234375 L397.277344,115.234375 Z M473.667969,114.023438 C476.662775,114.023438 479.436185,114.544266 481.988281,115.585938 C484.540377,116.627609 486.766918,118.085928 488.667969,119.960938 C490.56902,121.835947 492.066401,124.049466 493.160156,126.601562 C494.253912,129.153659 494.800781,131.979151 494.800781,135.078125 C494.800781,138.177099 494.253912,141.015612 493.160156,143.59375 C492.066401,146.171888 490.56902,148.398428 488.667969,150.273438 C486.766918,152.148447 484.540377,153.606766 481.988281,154.648438 C479.436185,155.690109 476.662775,156.210938 473.667969,156.210938 C470.673162,156.210938 467.899752,155.690109 465.347656,154.648438 C462.79556,153.606766 460.56902,152.148447 458.667969,150.273438 C456.766918,148.398428 455.269537,146.171888 454.175781,143.59375 C453.082026,141.015612 452.535156,138.177099 452.535156,135.078125 C452.535156,131.979151 453.082026,129.153659 454.175781,126.601562 C455.269537,124.049466 456.766918,121.835947 458.667969,119.960938 C460.56902,118.085928 462.79556,116.627609 465.347656,115.585938 C467.899752,114.544266 470.673162,114.023438 473.667969,114.023438 Z M517.371094,119.804688 C519.402354,116.080711 523.490855,114.21875 529.636719,114.21875 C531.407561,114.21875 534.076805,115.032544 537.644531,116.660156 C541.212257,118.287769 542.996094,122.747359 542.996094,130.039062 L542.996094,155 L530.808594,155 L530.808594,132.109375 C530.808594,130.130198 530.287766,128.48959 529.246094,127.1875 C528.204422,125.88541 526.615896,125.234375 524.480469,125.234375 C522.345041,125.234375 520.697922,125.88541 519.539062,127.1875 C518.380203,128.48959 517.800781,130.15624 517.800781,132.1875 L517.800781,155 L505.613281,155 L505.613281,115.234375 L517.371094,115.234375 L517.371094,119.804688 Z M605.167969,156.210938 C601.157532,156.210938 597.40757,155.51433 593.917969,154.121094 C590.428368,152.727858 587.388034,150.7422 584.796875,148.164062 C582.205716,145.585925 580.154955,142.480487 578.644531,138.847656 C577.134107,135.214826 576.378906,131.158877 576.378906,126.679688 C576.378906,122.200498 577.166659,118.144549 578.742188,114.511719 C580.317716,110.878888 582.446601,107.77345 585.128906,105.195312 C587.811211,102.617175 590.94269,100.618497 594.523438,99.1992188 C598.104185,97.7799408 601.89972,97.0703125 605.910156,97.0703125 C613.253943,97.0703125 619.080708,98.7955557 623.390625,102.246094 C627.700542,105.696632 630.61067,109.817684 632.121094,114.609375 L619.972656,118.828125 C619.399737,116.458321 617.954439,114.21225 615.636719,112.089844 C613.318999,109.967437 610.037782,108.90625 605.792969,108.90625 C601.522114,108.90625 597.681007,110.410141 594.269531,113.417969 C590.858056,116.425796 589.152344,120.820284 589.152344,126.601562 C589.152344,132.408883 590.812483,136.874984 594.132812,140 C597.453142,143.125016 601.339821,144.6875 605.792969,144.6875 C610.246116,144.6875 613.65754,143.665375 616.027344,141.621094 C618.397147,139.576813 619.790362,137.500011 620.207031,135.390625 L603.175781,135.390625 L603.175781,124.6875 L632.042969,124.6875 L632.042969,155 L621.808594,155 L621.027344,149.257812 C619.803379,151.080738 617.856784,152.695305 615.1875,154.101562 C612.518216,155.50782 609.178405,156.210938 605.167969,156.210938 Z M645.882812,98.0273438 C647.250007,96.6601494 648.923167,95.9765625 650.902344,95.9765625 C652.88152,95.9765625 654.567701,96.6666598 655.960938,98.046875 C657.354174,99.4270902 658.050781,101.106761 658.050781,103.085938 C658.050781,105.065114 657.360684,106.744785 655.980469,108.125 C654.600254,109.505215 652.920583,110.195312 650.941406,110.195312 C648.96223,110.195312 647.282559,109.505215 645.902344,108.125 C644.522129,106.744785 643.832031,105.058604 643.832031,103.066406 C643.832031,101.074209 644.515618,99.3945381 645.882812,98.0273438 Z M644.847656,155 L644.847656,115.234375 L657.035156,115.234375 L657.035156,155 L644.847656,155 Z M686.480469,155.703125 C682.313781,155.703125 679.058605,154.570324 676.714844,152.304688 C674.371082,150.039051 673.199219,146.914082 673.199219,142.929688 L673.199219,125.898438 L666.167969,125.898438 L666.167969,115.234375 L668.160156,115.234375 C670.2435,115.234375 671.786453,114.622402 672.789062,113.398438 C673.791672,112.174473 674.292969,110.625009 674.292969,108.75 L674.292969,103.632812 L685.191406,103.632812 L685.191406,115.234375 L692.964844,115.234375 L692.964844,125.898438 L685.191406,125.898438 L685.191406,140.742188 C685.191406,142.382821 685.588538,143.48958 686.382812,144.0625 C687.177087,144.63542 688.199212,144.921875 689.449219,144.921875 C690.699225,144.921875 691.819005,144.791668 692.808594,144.53125 L692.808594,154.609375 C690.985668,155.338545 688.876314,155.703125 686.480469,155.703125 Z M740.261719,155 L740.261719,132.421875 L717.605469,132.421875 L717.605469,155 L704.988281,155 L704.988281,98.28125 L717.605469,98.28125 L717.605469,120.507812 L740.261719,120.507812 L740.261719,98.28125 L752.957031,98.28125 L752.957031,155 L740.261719,155 Z M804.355469,147.890625 C804.355469,150.911473 804.498696,153.281241 804.785156,155 L793.105469,155 C792.871093,154.166663 792.753906,152.838551 792.753906,151.015625 C791.686193,152.734384 790.15626,153.977861 788.164062,154.746094 C786.171865,155.514327 784.069021,155.898438 781.855469,155.898438 C777.350238,155.898438 773.750013,154.401057 771.054688,151.40625 C768.359362,148.411443 767.011719,144.726584 767.011719,140.351562 L767.011719,115.234375 L779.160156,115.234375 L779.160156,137.8125 C779.160156,139.739593 779.680984,141.367181 780.722656,142.695312 C781.764328,144.023444 783.339833,144.6875 785.449219,144.6875 C787.558604,144.6875 789.212234,144.062506 790.410156,142.8125 C791.608079,141.562494 792.207031,139.921885 792.207031,137.890625 L792.207031,115.234375 L804.355469,115.234375 L804.355469,147.890625 Z M818.058594,155 L818.058594,97.0703125 L829.972656,97.0703125 L829.972656,118.984375 C830.832036,117.760411 832.283844,116.673182 834.328125,115.722656 C836.372406,114.772131 838.800767,114.296875 841.613281,114.296875 C847.238309,114.296875 851.704411,116.230449 855.011719,120.097656 C858.319027,123.964863 859.972656,128.945282 859.972656,135.039062 C859.972656,141.132843 858.19533,146.132793 854.640625,150.039062 C851.08592,153.945332 846.548205,155.898438 841.027344,155.898438 C838.37108,155.898438 836.066416,155.39063 834.113281,154.375 C832.160146,153.35937 830.727869,152.07032 829.816406,150.507812 L829.816406,155 L818.058594,155 Z M120.388,66 C87.041,66 60,93.035 60,126.388 C60,153.068 77.303,175.704 101.297,183.689 C104.315,184.248 105.423,182.379 105.423,180.784 C105.423,179.345 105.368,174.587 105.341,169.541 C88.541,173.194 84.996,162.416 84.996,162.416 C82.249,155.437 78.291,153.58 78.291,153.58 C72.812,149.832 78.704,149.909 78.704,149.909 C84.768,150.335 87.961,156.133 87.961,156.133 C93.347,165.364 102.088,162.695 105.534,161.152 C106.077,157.25 107.641,154.585 109.368,153.077 C95.955,151.551 81.855,146.372 81.855,123.233 C81.855,116.641 84.214,111.253 88.077,107.024 C87.45,105.503 85.383,99.361 88.663,91.043 C88.663,91.043 93.734,89.421 105.273,97.234 C110.09,95.896 115.256,95.225 120.388,95.201 C125.52,95.225 130.69,95.896 135.516,97.234 C147.042,89.421 152.106,91.043 152.106,91.043 C155.393,99.361 153.326,105.503 152.699,107.024 C156.571,111.253 158.913,116.641 158.913,123.233 C158.913,146.428 144.787,151.534 131.339,153.029 C133.505,154.903 135.435,158.578 135.435,164.212 C135.435,172.292 135.366,178.795 135.366,180.784 C135.366,182.392 136.453,184.275 139.513,183.682 C163.495,175.688 180.776,153.06 180.776,126.388 C180.776,93.035 153.739,66 120.388,66 Z" id="Combined-Shape"></path>
            <path d="M847.824219,135.097656 C847.824219,133.444002 847.583336,131.985683 847.101562,130.722656 C846.619789,129.459629 845.968754,128.430994 845.148438,127.636719 C844.328121,126.842444 843.371099,126.243492 842.277344,125.839844 C841.183588,125.436196 840.050787,125.234375 838.878906,125.234375 C837.707025,125.234375 836.574224,125.436196 835.480469,125.839844 C834.386713,126.243492 833.423181,126.842444 832.589844,127.636719 C831.756506,128.430994 831.08594,129.459629 830.578125,130.722656 C830.07031,131.985683 829.816406,133.444002 829.816406,135.097656 C829.816406,136.75131 830.07031,138.190098 830.578125,139.414062 C831.08594,140.638027 831.756506,141.660152 832.589844,142.480469 C833.423181,143.300785 834.386713,143.925779 835.480469,144.355469 C836.574224,144.785158 837.707025,145 838.878906,145 C840.050787,145 841.183588,144.798179 842.277344,144.394531 C843.371099,143.990883 844.328121,143.37891 845.148438,142.558594 C845.968754,141.738277 846.619789,140.703131 847.101562,139.453125 C847.583336,138.203119 847.824219,136.75131 847.824219,135.097656 Z" id="Path"></path>
            <path d="M480.035156,142.421875 C481.779957,140.703116 482.652344,138.242204 482.652344,135.039062 C482.652344,131.861963 481.766936,129.433602 479.996094,127.753906 C478.225252,126.07421 476.115898,125.234375 473.667969,125.234375 C471.193998,125.234375 469.084644,126.080721 467.339844,127.773438 C465.595043,129.466154 464.722656,131.894515 464.722656,135.058594 C464.722656,138.222672 465.588533,140.670564 467.320312,142.402344 C469.052092,144.134123 471.167956,145 473.667969,145 C476.167981,145 478.290356,144.140634 480.035156,142.421875 Z" id="Path"></path>
            <path d="M326.386719,125.664062 C324.95442,127.018236 324.173178,128.58072 324.042969,130.351562 L339.941406,130.351562 C339.811197,128.502595 339.088548,126.920579 337.773438,125.605469 C336.458327,124.290358 334.589856,123.632812 332.167969,123.632812 C329.746082,123.632812 327.819018,124.309889 326.386719,125.664062 Z" id="Path"></path>
        </g>
    </g>
</svg>